<svg width="164" height="24" viewBox="0 0 164 24" fill="none" xmlns="http://www.w3.org/2000/svg">
<path d="M0.939339 10.9393C0.353554 11.5251 0.353554 12.4749 0.939339 13.0607L10.4853 22.6066C11.0711 23.1924 12.0208 23.1924 12.6066 22.6066C13.1924 22.0208 13.1924 21.0711 12.6066 20.4853L4.12132 12L12.6066 3.51471C13.1924 2.92892 13.1924 1.97918 12.6066 1.39339C12.0208 0.807603 11.0711 0.807603 10.4853 1.39339L0.939339 10.9393ZM82 10.5L2 10.5L2 13.5L82 13.5L82 10.5Z" fill="#050937"/>
<path d="M163.061 13.0607C163.646 12.4749 163.646 11.5251 163.061 10.9393L153.515 1.3934C152.929 0.807611 151.979 0.807611 151.393 1.3934C150.808 1.97919 150.808 2.92893 151.393 3.51472L159.879 12L151.393 20.4853C150.808 21.0711 150.808 22.0208 151.393 22.6066C151.979 23.1924 152.929 23.1924 153.515 22.6066L163.061 13.0607ZM82 13.5L162 13.5V10.5L82 10.5V13.5Z" fill="#050937"/>
</svg>
