<svg width="56" height="44" viewBox="0 0 56 44" fill="none" xmlns="http://www.w3.org/2000/svg">
<circle r="20" transform="matrix(-1 0 0 1 20 24)" fill="#76BCBA"/>
<mask id="mask0_9_1977" style="mask-type:alpha" maskUnits="userSpaceOnUse" x="0" y="4" width="40" height="40">
<circle r="20" transform="matrix(-1 0 0 1 20 24)" fill="#5EC5F1"/>
</mask>
<g mask="url(#mask0_9_1977)">
<path d="M19.0193 44.1246C19.3271 44.1246 19.591 44.1246 19.8988 44.1246C23.1532 44.1246 23.1532 44.1246 23.4171 40.885C23.637 37.7329 25.1762 36.3758 28.3427 36.5947C29.662 36.6822 30.3217 36.2444 30.5416 34.8435C30.8055 33.0048 30.9814 31.1223 32.6525 29.8089C33.3562 29.2398 32.9604 28.3204 32.5646 27.5762C31.817 26.2628 31.4651 24.9057 31.4651 23.4172C31.5091 18.7766 28.9584 15.7997 24.9563 14.0047C20.5585 12.0347 15.3251 12.954 12.2026 16.325C9.16814 19.6084 8.15664 23.5048 9.6519 27.8389C10.2236 29.4587 11.1032 30.9472 12.3346 32.2605C14.1377 34.143 14.8853 36.4633 14.7094 39.0463C14.7094 39.2652 14.7094 39.4841 14.7094 39.703C14.5775 44.1246 14.5775 44.1246 19.0193 44.1246Z" fill="white"/>
</g>
<circle cx="44" cy="12" r="12" fill="#D69A20"/>
<path d="M46.606 8.43463L46.576 8.42663L45.0458 7.93058C44.58 7.77596 44.1567 7.51484 43.8095 7.16797C43.4623 6.8211 43.2007 6.39804 43.0456 5.93239L42.5496 4.40425C42.5082 4.2861 42.4311 4.18374 42.329 4.11132C42.2268 4.0389 42.1047 4 41.9795 4C41.8543 4 41.7322 4.0389 41.6301 4.11132C41.528 4.18374 41.4509 4.2861 41.4095 4.40425L40.9094 5.93239C40.758 6.39456 40.5018 6.81543 40.1607 7.16208C39.8196 7.50873 39.4029 7.77176 38.9432 7.93058L37.7551 8.31662H37.7491L37.4051 8.42663C37.287 8.46834 37.1848 8.54598 37.1131 8.64865C37.0584 8.72464 37.0222 8.81237 37.0075 8.90482C36.9927 8.99728 36.9999 9.09191 37.0282 9.18113C37.0566 9.27035 37.1055 9.35169 37.1709 9.41865C37.2364 9.48561 37.3165 9.53632 37.4051 9.56674L38.9392 10.0648L39.1053 10.1248L39.1213 10.1288C39.5203 10.2897 39.8823 10.5304 40.1849 10.8361C40.4876 11.1419 40.7246 11.5063 40.8814 11.907L40.9414 12.067L41.4375 13.5971C41.479 13.7156 41.5565 13.8181 41.659 13.8905C41.7615 13.9629 41.884 14.0016 42.0095 14.0012H42.0175C42.1413 13.9995 42.2616 13.9599 42.3622 13.8876C42.4627 13.8154 42.5386 13.714 42.5796 13.5971L43.0776 12.069C43.2322 11.6034 43.4934 11.1803 43.8403 10.8334C44.1872 10.4865 44.6102 10.2254 45.0758 10.0708L46.606 9.57474C46.7232 9.53242 46.8246 9.45498 46.8962 9.35296C46.9678 9.25095 47.0063 9.12934 47.0063 9.00469C47.0063 8.88004 46.9678 8.75842 46.8962 8.65641C46.8246 8.5544 46.7232 8.47696 46.606 8.43463ZM49.4382 15.1453L50.6624 15.5433L50.6884 15.5493C50.7818 15.5832 50.8626 15.6451 50.9197 15.7265C50.9768 15.8079 51.0074 15.9049 51.0074 16.0044C51.0074 16.1038 50.9768 16.2008 50.9197 16.2822C50.8626 16.3636 50.7818 16.4255 50.6884 16.4594L49.4622 16.8594C49.0902 16.9831 48.7521 17.1917 48.4747 17.4688C48.1973 17.7458 47.9882 18.0837 47.8641 18.4556L47.4661 19.6797C47.4318 19.776 47.3677 19.8589 47.2832 19.9164C47.1988 19.9739 47.0982 20.0031 46.996 19.9997C46.8974 19.9994 46.8013 19.9684 46.721 19.9111C46.6408 19.8537 46.5803 19.7729 46.548 19.6797L46.1479 18.4556C46.0238 18.0829 45.8146 17.7442 45.5369 17.4665C45.2591 17.1887 44.9205 16.9795 44.5478 16.8554L44.4998 16.8394L44.4978 16.8334L43.3317 16.4534C43.2382 16.4195 43.1574 16.3576 43.1003 16.2762C43.0433 16.1948 43.0126 16.0978 43.0126 15.9984C43.0126 15.8989 43.0433 15.8019 43.1003 15.7205C43.1574 15.6391 43.2382 15.5772 43.3317 15.5433L44.5578 15.1433C44.9255 15.0166 45.2589 14.8066 45.5319 14.5297C45.805 14.2528 46.0104 13.9165 46.1319 13.5471L46.53 12.323C46.5635 12.2288 46.6253 12.1474 46.7069 12.0898C46.7886 12.0321 46.8861 12.0012 46.986 12.0012C47.0859 12.0012 47.1834 12.0321 47.2651 12.0898C47.3467 12.1474 47.4086 12.2288 47.4421 12.323L47.8401 13.5471C47.9637 13.9195 48.1725 14.2579 48.45 14.5354C48.7274 14.8128 49.0658 15.0217 49.4382 15.1453Z" fill="white"/>
</svg>
