<svg width="24" height="24" viewBox="0 0 24 24" fill="none" xmlns="http://www.w3.org/2000/svg">
<circle cx="12" cy="12" r="12" fill="#D69A20"/>
<path d="M14.606 8.43463L14.576 8.42663L13.0458 7.93058C12.58 7.77596 12.1567 7.51484 11.8095 7.16797C11.4623 6.8211 11.2007 6.39804 11.0456 5.93239L10.5496 4.40425C10.5082 4.2861 10.4311 4.18374 10.329 4.11132C10.2268 4.0389 10.1047 4 9.97953 4C9.85434 4 9.73223 4.0389 9.63011 4.11132C9.52799 4.18374 9.45089 4.2861 9.40948 4.40425L8.90943 5.93239C8.75804 6.39456 8.50178 6.81543 8.16068 7.16208C7.81958 7.50873 7.4029 7.77176 6.94324 7.93058L5.75513 8.31662H5.74913L5.4051 8.42663C5.28696 8.46834 5.18485 8.54598 5.11307 8.64865C5.05837 8.72464 5.02221 8.81237 5.00747 8.90482C4.99274 8.99728 4.99985 9.09191 5.02823 9.18113C5.05661 9.27035 5.10547 9.35169 5.17091 9.41865C5.23635 9.48561 5.31655 9.53632 5.4051 9.56674L6.93924 10.0648L7.10526 10.1248L7.12126 10.1288C7.5203 10.2897 7.88226 10.5304 8.18494 10.8361C8.48761 11.1419 8.72462 11.5063 8.88143 11.907L8.94143 12.067L9.43748 13.5971C9.47904 13.7156 9.55646 13.8181 9.65898 13.8905C9.7615 13.9629 9.88402 14.0016 10.0095 14.0012H10.0175C10.1413 13.9995 10.2616 13.9599 10.3622 13.8876C10.4627 13.8154 10.5386 13.714 10.5796 13.5971L11.0776 12.069C11.2322 11.6034 11.4934 11.1803 11.8403 10.8334C12.1872 10.4865 12.6102 10.2254 13.0758 10.0708L14.606 9.57474C14.7232 9.53242 14.8246 9.45498 14.8962 9.35296C14.9678 9.25095 15.0063 9.12934 15.0063 9.00469C15.0063 8.88004 14.9678 8.75842 14.8962 8.65641C14.8246 8.5544 14.7232 8.47696 14.606 8.43463ZM17.4382 15.1453L18.6624 15.5433L18.6884 15.5493C18.7818 15.5832 18.8626 15.6451 18.9197 15.7265C18.9768 15.8079 19.0074 15.9049 19.0074 16.0044C19.0074 16.1038 18.9768 16.2008 18.9197 16.2822C18.8626 16.3636 18.7818 16.4255 18.6884 16.4594L17.4622 16.8594C17.0902 16.9831 16.7521 17.1917 16.4747 17.4688C16.1973 17.7458 15.9882 18.0837 15.8641 18.4556L15.4661 19.6797C15.4318 19.776 15.3677 19.8589 15.2832 19.9164C15.1988 19.9739 15.0982 20.0031 14.996 19.9997C14.8974 19.9994 14.8013 19.9684 14.721 19.9111C14.6408 19.8537 14.5803 19.7729 14.548 19.6797L14.1479 18.4556C14.0238 18.0829 13.8146 17.7442 13.5369 17.4665C13.2591 17.1887 12.9205 16.9795 12.5478 16.8554L12.4998 16.8394L12.4978 16.8334L11.3317 16.4534C11.2382 16.4195 11.1574 16.3576 11.1003 16.2762C11.0433 16.1948 11.0126 16.0978 11.0126 15.9984C11.0126 15.8989 11.0433 15.8019 11.1003 15.7205C11.1574 15.6391 11.2382 15.5772 11.3317 15.5433L12.5578 15.1433C12.9255 15.0166 13.2589 14.8066 13.5319 14.5297C13.805 14.2528 14.0104 13.9165 14.1319 13.5471L14.53 12.323C14.5635 12.2288 14.6253 12.1474 14.7069 12.0898C14.7886 12.0321 14.8861 12.0012 14.986 12.0012C15.0859 12.0012 15.1834 12.0321 15.2651 12.0898C15.3467 12.1474 15.4086 12.2288 15.4421 12.323L15.8401 13.5471C15.9637 13.9195 16.1725 14.2579 16.45 14.5354C16.7274 14.8128 17.0658 15.0217 17.4382 15.1453Z" fill="white"/>
</svg>
