<svg width="40" height="40" viewBox="0 0 40 40" fill="none" xmlns="http://www.w3.org/2000/svg">
<circle r="20" transform="matrix(-1 0 0 1 20 20)" fill="#D64621"/>
<mask id="mask0_1_1089" style="mask-type:alpha" maskUnits="userSpaceOnUse" x="0" y="0" width="40" height="40">
<circle r="20" transform="matrix(-1 0 0 1 20 20)" fill="#5EC5F1"/>
</mask>
<g mask="url(#mask0_1_1089)">
<path d="M19.0193 40.1246C19.3271 40.1246 19.591 40.1246 19.8988 40.1246C23.1532 40.1246 23.1532 40.1246 23.4171 36.885C23.637 33.7329 25.1762 32.3758 28.3427 32.5947C29.662 32.6822 30.3217 32.2444 30.5416 30.8435C30.8055 29.0048 30.9814 27.1223 32.6525 25.8089C33.3562 25.2398 32.9604 24.3204 32.5646 23.5762C31.817 22.2628 31.4651 20.9057 31.4651 19.4172C31.5091 14.7766 28.9584 11.7997 24.9563 10.0047C20.5585 8.03466 15.3251 8.95402 12.2026 12.325C9.16814 15.6084 8.15664 19.5048 9.65191 23.8389C10.2236 25.4587 11.1032 26.9472 12.3346 28.2605C14.1377 30.143 14.8853 32.4633 14.7094 35.0463C14.7094 35.2652 14.7094 35.4841 14.7094 35.703C14.5775 40.1246 14.5775 40.1246 19.0193 40.1246Z" fill="white"/>
</g>
</svg>
